<svg xmlns="http://www.w3.org/2000/svg" viewBox="0 0 8207.14 2581.15"><defs><style>.cls-1{fill:#fff;}</style></defs><title>google</title><g id="Layer_2" data-name="Layer 2"><g id="Layer_1-2" data-name="Layer 1"><path class="cls-1" d="M1954.92,919.77c10.1,49.4,14.59,108.9,14.59,172.9,0,206.58-57.26,463.68-239.14,645.57-177.39,184.12-404.18,282.92-705.07,282.92C468.43,2021.16.25,1567.58.25,1010.71S468.43.25,1025.3.25c307.63,0,527.68,121.26,691.6,280.68L1522.67,475.17C1404.78,364,1244.23,277.57,1025.3,277.57c-406.43,0-724.16,327.83-724.16,734.26s317.73,734.26,724.16,734.26c262.72,0,413.16-105.53,509.72-202.09,78.59-79.71,130.23-193.11,150.44-348H1025.3V919.77Z" transform="translate(-0.25 -0.25)"/><path class="cls-1" d="M8178.2,1110.63l29.19,74.1L7335,1545.13c67.37,131.36,170.66,197.6,316.61,197.6s247-71.86,321.1-179.64l222.3,148.2c-71.85,105.54-244.75,288.54-543.4,288.54-370.5,0-646.69-286.29-646.69-652.3,0-388.47,279.56-652.31,615.25-652.31C7958.15,695.22,8124.31,964.68,8178.2,1110.63ZM7289,1327.32l589.43-243.64c-32.56-84.2-131.36-143.7-247-143.7C7483.23,940,7289,1053.37,7289,1327.32Z" transform="translate(-0.25 -0.25)"/><rect class="cls-1" x="6499.47" y="26.95" width="281.81" height="1972.63"/><path class="cls-1" d="M6275.18,728.9V1902.15c0,481.65-284.05,679.25-619.75,679.25-316.61,0-506.35-212.19-578.2-385.09L5326.47,2093c44.91,106.66,153.82,232.4,329,232.4,214.44,0,348.05-133.6,348.05-382.85v-90.94h-10.11c-64,78.59-187.49,148.2-343.55,148.2-325.59,0-609.64-286.29-609.64-652.3,0-368.26,284.05-652.31,609.64-652.31,156.06,0,279.56,69.61,343.55,146h10.11V728.9ZM5674.52,1742.73c195.35,0,349.17-165,348-393,0-229-152.69-397.44-348-397.44-197.6,0-348.05,165-348.05,395.2C5326.47,1574.32,5476.92,1742.73,5674.52,1742.73Z" transform="translate(-0.25 -0.25)"/><path class="cls-1" d="M4254.27,695.22c360.39,0,654.55,274,654.55,652.31,0,376.11-294.16,652.3-654.55,652.3s-654.56-277.31-654.56-652.3C3599.71,969.17,3893.87,695.22,4254.27,695.22Zm368.25,652.31c0-234.65-170.65-395.2-368.25-395.2S3886,1112.88,3886,1347.53c0,232.4,170.66,395.2,368.26,395.2S4622.52,1579.93,4622.52,1347.53Z" transform="translate(-0.25 -0.25)"/><path class="cls-1" d="M2794.72,695.22c360.39,0,654.55,274,654.55,652.31,0,376.11-294.16,652.3-654.55,652.3s-654.55-277.31-654.55-652.3C2140.17,969.17,2434.32,695.22,2794.72,695.22ZM3163,1347.53c0-234.65-170.65-395.2-368.25-395.2s-368.26,160.55-368.26,395.2c0,232.4,170.66,395.2,368.26,395.2S3163,1579.93,3163,1347.53Z" transform="translate(-0.25 -0.25)"/></g></g></svg>